name C:\Users\u0101727\Documents\MyRepositories\predictivesimulations\OpenSimModel\subject1\EMG\EMG_gait_65.mot
datacolumns 25
datarows 9
range 0.00100000 0.00900000
endheader
time	HamL_r	TA_r	PerL_r	GL_r	HamM_r	Sol_r	VL_r	VM_r	PerB_l	TA_l	PerL_l	GL_l	GM_l	Sol_l	VL_l	VM_l	AddL_l	RF_l	TFL_l	GluMed_l	HamL_l	HamM_l	GluMed_r	RF_r	
          0.00100000	          0.00100000	          0.00100000	          0.00181193	          0.00160016	          0.00109605	          0.00296697	          0.00100000	          0.00100000	          0.00100000	          0.00100000	          0.00652462	          0.00100000	          0.00100000	          0.00100000	          0.00199495	          0.00168493	          0.00100000	          0.00100000	          0.00488015	          0.00252384	          0.00145564	          0.00427932	          0.00100000	          0.00222802	
          0.00200000	          0.00104851	          0.00100000	          0.00193542	          0.00168112	          0.00116288	          0.00327553	          0.00100000	          0.00100000	          0.00100000	          0.00100000	          0.00775759	          0.00100000	          0.00100000	          0.00100000	          0.00212109	          0.00179591	          0.00100000	          0.00100000	          0.00543834	          0.00267862	          0.00173732	          0.00457217	          0.00100000	          0.00252603	
          0.00300000	          0.00117514	          0.00100000	          0.00205887	          0.00176266	          0.00123124	          0.00358377	          0.00100000	          0.00100000	          0.00100000	          0.00100000	          0.00898370	          0.00100000	          0.00100000	          0.00100000	          0.00224921	          0.00190794	          0.00100000	          0.00100000	          0.00598638	          0.00283195	          0.00202034	          0.00487330	          0.00100000	          0.00282631	
          0.00400000	          0.00129970	          0.00100000	          0.00218176	          0.00184436	          0.00130083	          0.00389037	          0.00150922	          0.00104688	          0.00100000	          0.00100000	          0.01019777	          0.00100000	          0.00100000	          0.00572839	          0.00237871	          0.00202044	          0.00100000	          0.00100000	          0.00652163	          0.00298316	          0.00230375	          0.00518210	          0.00100000	          0.00312750	
          0.00500000	          0.00142153	          0.00100000	          0.00230356	          0.00192590	          0.00137147	          0.00419410	          0.00327875	          0.00119134	          0.00100000	          0.00100000	          0.01139530	          0.00100000	          0.00100000	          0.01124454	          0.00250912	          0.00213290	          0.00100000	          0.00100000	          0.00704158	          0.00313162	          0.00258660	          0.00549800	          0.00100000	          0.00342841	
          0.00600000	          0.00154013	          0.00100000	          0.00242371	          0.00200697	          0.00144307	          0.00449382	          0.00499605	          0.00133476	          0.00100000	          0.00105678	          0.01257230	          0.00100000	          0.00100000	          0.01664970	          0.00264007	          0.00224493	          0.00100000	          0.00100000	          0.00754374	          0.00327663	          0.00286800	          0.00582042	          0.00100000	          0.00372803	
          0.00700000	          0.00165509	          0.00100000	          0.00254167	          0.00208731	          0.00151552	          0.00478851	          0.00665548	          0.00147680	          0.00100000	          0.00192325	          0.01372548	          0.00100000	          0.00888734	          0.02193079	          0.00277125	          0.00235617	          0.00100000	          0.00100000	          0.00802567	          0.00341751	          0.00314718	          0.00614872	          0.00100000	          0.00402560	
          0.00800000	          0.00176609	          0.00100000	          0.00265688	          0.00216665	          0.00158870	          0.00507720	          0.00825247	          0.00161716	          0.00100000	          0.00276736	          0.01485215	          0.00100000	          0.01676630	          0.02707758	          0.00290235	          0.00246630	          0.00100000	          0.00100000	          0.00848489	          0.00355357	          0.00342350	          0.00648226	          0.00100000	          0.00432050	
          0.00900000	          0.00187286	          0.00100000	          0.00276880	          0.00224473	          0.00166248	          0.00535899	          0.00978336	          0.00175558	          0.00100000	          0.00358794	          0.01595006	          0.00130804	          0.02437017	          0.03208199	          0.00303308	          0.00257497	          0.00128112	          0.00100000	          0.00891898	          0.00368414	          0.00369641	          0.00682035	          0.00100000	          0.00461221	
